<svg xmlns="http://www.w3.org/2000/svg" fill="none" viewBox="0 0 9619 2706">
	<path fill="#3AAFA9" d="M1352.82 2705.64c747.14 0 1352.82-605.68 1352.82-1352.82C2705.64 605.678 2099.96 0 1352.82 0 605.678 0 0 605.678 0 1352.82c0 747.14 605.678 1352.82 1352.82 1352.82Z"/>
	<path stroke="#fff" stroke-linecap="round" stroke-miterlimit="10" stroke-width="80" d="M1357.31 2274.08V1845.6m0 0 4.5-4.48 534.96-534.98m-539.46 539.46-546.68-546.68m543.74-867.36v569.99m0 0 8.97-8.95 253.46-253.49m-262.43 262.44-.02.02-261.45-261.45m261.47 261.43v413.17m0 0-8.9-8.88-411.46-411.45m420.36 420.33.09.09m0 .01 416.06-416.06m146.66 464.48c.56 43.96-3.61 87.93-13.09 130.88-8.84 40.07-22.42 79.04-40.34 115.95-65.23 134.34-183.71 239.66-324.93 288.32-59.24 20.41-121.81 30.74-184.46 30.74-312.56 0-565.95-253.39-565.95-565.95 0-137.54 51.54-270.76 108.62-393.78 1.51-3.26 3.03-6.51 4.56-9.75a1808.49 1808.49 0 0 1 26.65-54.12c10.12-19.73 20.59-39.28 31.38-58.64 11.77-21.12 23.93-42.03 36.44-62.72 13.53-22.38 27.48-44.5 41.82-66.36 15.4-23.48 31.26-46.67 47.53-69.56 17.39-24.45 35.25-48.55 53.57-72.31 19.48-25.27 39.47-50.15 59.93-74.63 21.69-25.94 43.9-51.44 66.62-76.5 24-26.48 48.56-52.45 73.63-77.92 5.05-5.13 10.11-10.24 15.2-15.32 132.68 132.68 251.91 279.46 350.25 439.42 54.28 88.3 102.61 180.48 141.03 276.81 38.51 96.53 67.84 198.77 71.26 303.2.13 4.07.23 8.16.28 12.24Z"/>
	<path fill="#3AAFA9" d="M8650.7 1376c0 66.67 6 127.33 18 182s28.67 102 50 142c22.67 40 49.34 71.33 80 94 30.67 21.33 65.34 32 104 32 37.34 0 71.34-10.67 102-32 32-22.67 58.67-54 80-94 21.34-40 38-87.33 50-142s18-115.33 18-182c0-65.33-6-125.33-18-180-12-56-28.66-103.33-50-142-21.33-40-48-70.667-80-92-30.66-22.667-64.66-34-102-34-38.66 0-73.33 11.333-104 34-30.66 21.333-57.33 52-80 92-21.33 38.67-38 86-50 142-12 54.67-18 114.67-18 180Zm-388 0c0-120 15.34-228.67 46-326 32-98.667 76-182.667 132-252 57.34-69.333 124.67-122.667 202-160 78.67-38.667 165.34-58 260-58 93.34 0 179.34 19.333 258 58 78.67 37.333 146 90.667 202 160s99.34 153.333 130 252c32 97.33 48 206 48 326s-16 229.33-48 328c-30.66 97.33-74 181.33-130 252-56 69.33-123.33 123.33-202 162-78.66 37.33-164.66 56-258 56-94.66 0-181.33-18.67-260-56-77.33-38.67-144.66-92.67-202-162-56-70.67-100-154.67-132-252-30.66-98.67-46-208-46-328Zm-789.29-420h-220V624h612v1508h-392V956ZM5593.8 1378c0 60 11.33 115.33 34 166 22.66 50.67 53.33 94.67 92 132 38.66 37.33 83.33 66.67 134 88 52 20 106.66 30 164 30 57.33 0 111.33-10 162-30 52-21.33 97.33-50.67 136-88 40-37.33 71.33-81.33 94-132 22.66-50.67 34-106 34-166s-11.34-115.33-34-166c-22.67-50.67-54-94.67-94-132-38.67-37.33-84-66-136-86-50.67-21.333-104.67-32-162-32-57.34 0-112 10.667-164 32-50.67 20-95.34 48.67-134 86-38.67 37.33-69.34 81.33-92 132-22.67 50.67-34 106-34 166Zm-410 0c0-112 20.66-216 62-312 41.33-97.333 98.66-182 172-254 73.33-72 160.66-128 262-168 102.66-41.333 215.33-62 338-62 121.33 0 233.33 20.667 336 62 102.66 40 190.66 96 264 168 74.66 72 132.66 156.667 174 254 41.33 96 62 200 62 312s-20.67 216.67-62 314c-41.34 96-99.34 180-174 252-73.34 72-161.34 128.67-264 170-102.67 40-214.67 60-336 60-122.67 0-235.34-20-338-60-101.34-41.33-188.67-98-262-170-73.34-72-130.67-156-172-252-41.34-97.33-62-202-62-314Zm-247.03-754v1508h-392V624h392ZM3552 1828h86c98.67 0 169.33-12.67 212-38 42.67-25.33 64-66 64-122s-21.33-96.67-64-122-113.33-38-212-38h-86v320Zm0-612h72c122.67 0 184-48.67 184-146 0-97.333-61.33-146-184-146h-72v292Zm-392-592h584c138.67 0 244 33.333 316 100s108 162.667 108 288c0 76-14 139.33-42 190-26.67 49.33-68 91.33-124 126 56 10.67 103.33 27.33 142 50 40 21.33 72 48 96 80 25.33 32 43.33 68 54 108 10.67 40 16 82.67 16 128 0 70.67-12.67 133.33-38 188-24 54.67-58.67 100.67-104 138-44 37.33-98 65.33-162 84s-136 28-216 28h-630V624Z"/>
</svg>
